<mxfile host="app.diagrams.net" modified="2024-03-10T22:39:24.238Z" agent="Mozilla/5.0 (X11; Linux x86_64) AppleWebKit/537.36 (KHTML, like Gecko) Chrome/122.0.0.0 Safari/537.36" etag="Sb3nKanw-hWQCUlnHsYn" version="24.0.4" type="device">
  <diagram name="Page-1" id="sv4eKT52F1IlTcsq5dl7">
    <mxGraphModel dx="1051" dy="754" grid="1" gridSize="10" guides="1" tooltips="1" connect="1" arrows="1" fold="1" page="1" pageScale="1" pageWidth="850" pageHeight="1100" math="0" shadow="0">
      <root>
        <mxCell id="0" />
        <mxCell id="1" parent="0" />
        <mxCell id="SOxTvH4YZH4HP-QPCvsQ-2" value="conferencia" style="rounded=0;whiteSpace=wrap;html=1;" parent="1" vertex="1">
          <mxGeometry x="80" y="20" width="70" height="20" as="geometry" />
        </mxCell>
        <mxCell id="SOxTvH4YZH4HP-QPCvsQ-7" value="ArtigoCientifico" style="rounded=0;whiteSpace=wrap;html=1;" parent="1" vertex="1">
          <mxGeometry x="80" y="320" width="90" height="20" as="geometry" />
        </mxCell>
        <mxCell id="SOxTvH4YZH4HP-QPCvsQ-8" value="numRegisto" style="rounded=0;whiteSpace=wrap;html=1;fontStyle=4" parent="1" vertex="1">
          <mxGeometry x="80" y="340" width="80" height="40" as="geometry" />
        </mxCell>
        <mxCell id="SOxTvH4YZH4HP-QPCvsQ-9" value="titulo" style="rounded=0;whiteSpace=wrap;html=1;" parent="1" vertex="1">
          <mxGeometry x="160" y="340" width="50" height="40" as="geometry" />
        </mxCell>
        <mxCell id="SOxTvH4YZH4HP-QPCvsQ-12" value="Autor" style="rounded=0;whiteSpace=wrap;html=1;" parent="1" vertex="1">
          <mxGeometry x="80" y="220" width="70" height="20" as="geometry" />
        </mxCell>
        <mxCell id="SOxTvH4YZH4HP-QPCvsQ-13" value="instituicao" style="rounded=0;whiteSpace=wrap;html=1;fontStyle=0" parent="1" vertex="1">
          <mxGeometry x="260" y="240" width="70" height="40" as="geometry" />
        </mxCell>
        <mxCell id="SOxTvH4YZH4HP-QPCvsQ-17" style="edgeStyle=orthogonalEdgeStyle;rounded=0;orthogonalLoop=1;jettySize=auto;html=1;entryX=0.5;entryY=1;entryDx=0;entryDy=0;" parent="1" source="SOxTvH4YZH4HP-QPCvsQ-14" target="SOxTvH4YZH4HP-QPCvsQ-8" edge="1">
          <mxGeometry relative="1" as="geometry">
            <Array as="points">
              <mxPoint x="385" y="400" />
              <mxPoint x="120" y="400" />
            </Array>
          </mxGeometry>
        </mxCell>
        <mxCell id="SOxTvH4YZH4HP-QPCvsQ-14" value="ArtigoCientifico-numRegisto" style="rounded=0;whiteSpace=wrap;html=1;" parent="1" vertex="1">
          <mxGeometry x="330" y="240" width="110" height="40" as="geometry" />
        </mxCell>
        <mxCell id="LZy3RoKW6gQxPcdCkDqI-31" style="edgeStyle=orthogonalEdgeStyle;rounded=0;orthogonalLoop=1;jettySize=auto;html=1;entryX=0.75;entryY=1;entryDx=0;entryDy=0;" edge="1" parent="1" source="SOxTvH4YZH4HP-QPCvsQ-19" target="LZy3RoKW6gQxPcdCkDqI-4">
          <mxGeometry relative="1" as="geometry">
            <Array as="points">
              <mxPoint x="125" y="300" />
              <mxPoint x="60" y="300" />
              <mxPoint x="60" y="200" />
              <mxPoint x="155" y="200" />
            </Array>
          </mxGeometry>
        </mxCell>
        <mxCell id="SOxTvH4YZH4HP-QPCvsQ-19" value="Pessoa-enderecoEmail" style="rounded=0;whiteSpace=wrap;html=1;fontStyle=4" parent="1" vertex="1">
          <mxGeometry x="80" y="240" width="90" height="40" as="geometry" />
        </mxCell>
        <mxCell id="LZy3RoKW6gQxPcdCkDqI-29" style="edgeStyle=orthogonalEdgeStyle;rounded=0;orthogonalLoop=1;jettySize=auto;html=1;entryX=0.5;entryY=1;entryDx=0;entryDy=0;" edge="1" parent="1" source="SOxTvH4YZH4HP-QPCvsQ-20" target="LZy3RoKW6gQxPcdCkDqI-5">
          <mxGeometry relative="1" as="geometry" />
        </mxCell>
        <mxCell id="SOxTvH4YZH4HP-QPCvsQ-20" value="Pessoa-nome" style="rounded=0;whiteSpace=wrap;html=1;fontStyle=0" parent="1" vertex="1">
          <mxGeometry x="170" y="240" width="90" height="40" as="geometry" />
        </mxCell>
        <mxCell id="SOxTvH4YZH4HP-QPCvsQ-21" value="Participante" style="rounded=0;whiteSpace=wrap;html=1;" parent="1" vertex="1">
          <mxGeometry x="80" y="420" width="70" height="20" as="geometry" />
        </mxCell>
        <mxCell id="LZy3RoKW6gQxPcdCkDqI-43" style="edgeStyle=orthogonalEdgeStyle;rounded=0;orthogonalLoop=1;jettySize=auto;html=1;entryX=0.25;entryY=1;entryDx=0;entryDy=0;" edge="1" parent="1" source="SOxTvH4YZH4HP-QPCvsQ-22" target="LZy3RoKW6gQxPcdCkDqI-4">
          <mxGeometry relative="1" as="geometry">
            <Array as="points">
              <mxPoint x="40" y="460" />
              <mxPoint x="40" y="180" />
              <mxPoint x="105" y="180" />
            </Array>
          </mxGeometry>
        </mxCell>
        <mxCell id="SOxTvH4YZH4HP-QPCvsQ-22" value="Pessoa-enderecoEmail" style="rounded=0;whiteSpace=wrap;html=1;fontStyle=4" parent="1" vertex="1">
          <mxGeometry x="80" y="440" width="90" height="40" as="geometry" />
        </mxCell>
        <mxCell id="SOxTvH4YZH4HP-QPCvsQ-23" value="morada" style="rounded=0;whiteSpace=wrap;html=1;" parent="1" vertex="1">
          <mxGeometry x="260" y="440" width="60" height="40" as="geometry" />
        </mxCell>
        <mxCell id="SOxTvH4YZH4HP-QPCvsQ-24" value="instituicao" style="rounded=0;whiteSpace=wrap;html=1;" parent="1" vertex="1">
          <mxGeometry x="320" y="440" width="70" height="40" as="geometry" />
        </mxCell>
        <mxCell id="SOxTvH4YZH4HP-QPCvsQ-25" value="dataInscricao" style="rounded=0;whiteSpace=wrap;html=1;" parent="1" vertex="1">
          <mxGeometry x="390" y="440" width="90" height="40" as="geometry" />
        </mxCell>
        <mxCell id="SOxTvH4YZH4HP-QPCvsQ-26" value="Pessoa-nome" style="rounded=0;whiteSpace=wrap;html=1;" parent="1" vertex="1">
          <mxGeometry x="170" y="440" width="90" height="40" as="geometry" />
        </mxCell>
        <mxCell id="LZy3RoKW6gQxPcdCkDqI-2" value="nome" style="rounded=0;whiteSpace=wrap;html=1;fontStyle=4" vertex="1" parent="1">
          <mxGeometry x="80" y="40" width="70" height="40" as="geometry" />
        </mxCell>
        <mxCell id="LZy3RoKW6gQxPcdCkDqI-3" value="Pessoa" style="rounded=0;whiteSpace=wrap;html=1;" vertex="1" parent="1">
          <mxGeometry x="80" y="100" width="70" height="20" as="geometry" />
        </mxCell>
        <mxCell id="LZy3RoKW6gQxPcdCkDqI-4" value="enderecoEmail" style="rounded=0;whiteSpace=wrap;html=1;fontStyle=4" vertex="1" parent="1">
          <mxGeometry x="80" y="120" width="100" height="40" as="geometry" />
        </mxCell>
        <mxCell id="LZy3RoKW6gQxPcdCkDqI-5" value="nome" style="rounded=0;whiteSpace=wrap;html=1;" vertex="1" parent="1">
          <mxGeometry x="180" y="120" width="70" height="40" as="geometry" />
        </mxCell>
        <mxCell id="LZy3RoKW6gQxPcdCkDqI-8" value="Estudante" style="rounded=0;whiteSpace=wrap;html=1;" vertex="1" parent="1">
          <mxGeometry x="80" y="540" width="70" height="20" as="geometry" />
        </mxCell>
        <mxCell id="LZy3RoKW6gQxPcdCkDqI-32" style="edgeStyle=orthogonalEdgeStyle;rounded=0;orthogonalLoop=1;jettySize=auto;html=1;entryX=0.75;entryY=1;entryDx=0;entryDy=0;" edge="1" parent="1" source="LZy3RoKW6gQxPcdCkDqI-9" target="SOxTvH4YZH4HP-QPCvsQ-22">
          <mxGeometry relative="1" as="geometry">
            <Array as="points">
              <mxPoint x="140" y="620" />
              <mxPoint x="60" y="620" />
              <mxPoint x="60" y="520" />
              <mxPoint x="148" y="520" />
            </Array>
          </mxGeometry>
        </mxCell>
        <mxCell id="LZy3RoKW6gQxPcdCkDqI-9" value="Participante-Pessoa-enderecoEmail" style="rounded=0;whiteSpace=wrap;html=1;fontStyle=4" vertex="1" parent="1">
          <mxGeometry x="80" y="560" width="130" height="40" as="geometry" />
        </mxCell>
        <mxCell id="LZy3RoKW6gQxPcdCkDqI-15" value="NÃ£o-Estudante" style="rounded=0;whiteSpace=wrap;html=1;" vertex="1" parent="1">
          <mxGeometry x="80" y="640" width="100" height="20" as="geometry" />
        </mxCell>
        <mxCell id="LZy3RoKW6gQxPcdCkDqI-44" style="edgeStyle=orthogonalEdgeStyle;rounded=0;orthogonalLoop=1;jettySize=auto;html=1;entryX=0.25;entryY=1;entryDx=0;entryDy=0;" edge="1" parent="1" source="LZy3RoKW6gQxPcdCkDqI-16" target="SOxTvH4YZH4HP-QPCvsQ-22">
          <mxGeometry relative="1" as="geometry">
            <Array as="points">
              <mxPoint x="145" y="720" />
              <mxPoint x="40" y="720" />
              <mxPoint x="40" y="500" />
              <mxPoint x="103" y="500" />
            </Array>
          </mxGeometry>
        </mxCell>
        <mxCell id="LZy3RoKW6gQxPcdCkDqI-16" value="Participante-Pessoa-enderecoEmail" style="rounded=0;whiteSpace=wrap;html=1;fontStyle=4" vertex="1" parent="1">
          <mxGeometry x="80" y="660" width="130" height="40" as="geometry" />
        </mxCell>
        <mxCell id="LZy3RoKW6gQxPcdCkDqI-21" value="&lt;span style=&quot;color: rgb(0, 0, 0); font-family: Helvetica; font-size: 12px; font-style: normal; font-variant-ligatures: normal; font-variant-caps: normal; font-weight: 400; letter-spacing: normal; orphans: 2; text-align: center; text-indent: 0px; text-transform: none; widows: 2; word-spacing: 0px; -webkit-text-stroke-width: 0px; white-space: normal; background-color: rgb(251, 251, 251); text-decoration-thickness: initial; text-decoration-style: initial; text-decoration-color: initial; display: inline !important; float: none;&quot;&gt;referenciaTransacao&lt;/span&gt;" style="rounded=0;whiteSpace=wrap;html=1;" vertex="1" parent="1">
          <mxGeometry x="210" y="660" width="135" height="40" as="geometry" />
        </mxCell>
        <mxCell id="LZy3RoKW6gQxPcdCkDqI-22" value="&lt;span style=&quot;color: rgb(0, 0, 0); font-family: Helvetica; font-size: 12px; font-style: normal; font-variant-ligatures: normal; font-variant-caps: normal; font-weight: 400; letter-spacing: normal; orphans: 2; text-align: center; text-indent: 0px; text-transform: none; widows: 2; word-spacing: 0px; -webkit-text-stroke-width: 0px; white-space: normal; background-color: rgb(251, 251, 251); text-decoration-thickness: initial; text-decoration-style: initial; text-decoration-color: initial; display: inline !important; float: none;&quot;&gt;comprovativoInstituicao&lt;/span&gt;" style="rounded=0;whiteSpace=wrap;html=1;" vertex="1" parent="1">
          <mxGeometry x="210" y="560" width="150" height="40" as="geometry" />
        </mxCell>
      </root>
    </mxGraphModel>
  </diagram>
</mxfile>
